<?xml version="1.0" standalone="no"?>
<!DOCTYPE svg PUBLIC "-//W3C//DTD SVG 20010904//EN"
 "http://www.w3.org/TR/2001/REC-SVG-20010904/DTD/svg10.dtd">
<svg version="1.0" xmlns="http://www.w3.org/2000/svg"
 width="512.000000pt" height="512.000000pt" viewBox="0 0 512.000000 512.000000"
 preserveAspectRatio="xMidYMid meet">
<metadata>
Created by potrace 1.14, written by Peter Selinger 2001-2017
</metadata>
<g transform="translate(0.000000,512.000000) scale(0.100000,-0.100000)"
fill="#000000" stroke="none">
<path d="M93 5104 c-17 -7 -44 -30 -60 -50 l-28 -37 -3 -2438 c-2 -1935 0
-2445 10 -2475 8 -21 29 -50 51 -68 l39 -31 2444 -3 c2701 -2 2486 -8 2540 64
l29 37 3 2436 c2 1858 0 2445 -9 2473 -14 42 -51 82 -92 97 -19 8 -776 11
-2460 10 -2057 0 -2437 -3 -2464 -15z"/>
</g>
</svg>
