<?xml version="1.0" standalone="no"?>
<!DOCTYPE svg PUBLIC "-//W3C//DTD SVG 20010904//EN"
 "http://www.w3.org/TR/2001/REC-SVG-20010904/DTD/svg10.dtd">
<svg version="1.0" xmlns="http://www.w3.org/2000/svg"
 width="512.000000pt" height="512.000000pt" viewBox="0 0 512.000000 512.000000"
 preserveAspectRatio="xMidYMid meet">
<metadata>
Created by potrace 1.14, written by Peter Selinger 2001-2017
</metadata>
<g transform="translate(0.000000,512.000000) scale(0.100000,-0.100000)"
fill="#000000" stroke="none">
<path d="M95 5106 c-41 -18 -83 -69 -90 -109 -3 -18 -4 -1126 -3 -2464 l3
-2432 21 -27 c11 -15 33 -37 48 -48 l27 -21 2459 0 2459 0 27 21 c15 11 37 33
48 48 l21 27 0 2459 0 2459 -21 27 c-11 15 -33 37 -48 48 l-27 21 -2447 2
c-2019 2 -2452 0 -2477 -11z m1372 -1881 c120 -222 220 -404 223 -405 3 0 104
182 225 405 l220 405 218 0 c173 0 218 -3 214 -13 -2 -7 -158 -272 -346 -590
l-341 -577 0 -430 0 -430 -190 0 -190 0 0 432 0 432 -345 584 c-190 321 -345
585 -345 588 0 2 99 4 219 4 l219 0 219 -405z m1645 -79 l3 -484 328 484 328
484 225 0 224 0 -340 -510 -340 -510 375 -505 c206 -277 375 -507 375 -510 0
-3 -109 -4 -242 -3 l-241 3 -346 467 -346 466 -3 -469 -2 -469 -190 0 -190 0
0 1020 0 1020 190 0 190 0 2 -484z"/>
</g>
</svg>
