<?xml version="1.0" standalone="no"?>
<!DOCTYPE svg PUBLIC "-//W3C//DTD SVG 20010904//EN"
 "http://www.w3.org/TR/2001/REC-SVG-20010904/DTD/svg10.dtd">
<svg version="1.0" xmlns="http://www.w3.org/2000/svg"
 width="512.000000pt" height="512.000000pt" viewBox="0 0 512.000000 512.000000"
 preserveAspectRatio="xMidYMid meet">
<metadata>
Created by potrace 1.14, written by Peter Selinger 2001-2017
</metadata>
<g transform="translate(0.000000,512.000000) scale(0.100000,-0.100000)"
fill="#000000" stroke="none">
<path d="M0 2560 l0 -2560 2560 0 2560 0 0 2560 0 2560 -2560 0 -2560 0 0
-2560z m1970 993 c0 -535 3 -564 66 -692 44 -88 150 -201 234 -248 294 -165
660 -58 814 236 72 138 70 121 74 679 l3 502 300 0 299 0 0 -497 c0 -540 -5
-601 -56 -765 -99 -315 -317 -571 -608 -714 -49 -24 -120 -54 -158 -66 l-68
-22 0 -468 0 -468 -305 0 -305 0 0 468 0 468 -72 23 c-227 73 -433 220 -579
413 -78 105 -172 296 -206 423 l-27 100 -4 553 -3 552 300 0 301 0 0 -477z"/>
</g>
</svg>
